<?xml version="1.0" encoding="utf-8"?>
<svg viewBox="0 0 1100 724.93" xmlns="http://www.w3.org/2000/svg">
  <circle cx="540.196" cy="668.361" r="56.103" fill="#6c63ff" style=""/>
  <path d="M 875.362 721.311 C 906.747 711.885 940.117 702.056 965.008 679.647 C 987.252 659.622 1002.268 629.046 993.052 599.014 C 983.857 569.047 956.312 549.064 927.874 539.124 C 911.743 533.489 894.87 530.36 878 527.903 C 859.664 525.234 841.246 523.046 822.837 520.938 C 748.294 512.413 673.473 507.206 598.37 505.315 C 561.313 504.382 524.259 504.403 487.199 504.941 C 454.097 505.422 419.236 505.409 388.529 491.343 C 364.652 480.402 342.98 460.499 336.325 434.343 C 328.646 404.154 342.811 373.408 363.133 351.541 C 373.845 340.016 386.364 330.315 399.278 321.395 C 413.29 311.717 427.789 302.726 442.601 294.333 C 471.775 277.811 502.278 263.749 533.788 252.294 C 549.335 246.641 565.109 241.767 581.023 237.267 C 594.459 233.468 607.938 229.664 620.924 224.488 C 646.029 214.483 669.904 197.535 676.29 169.748 C 682.339 143.416 672.139 114.829 654.257 95.264 C 633.567 72.632 602.375 62.711 572.468 61.105 C 538.894 59.304 506.092 67.705 474.534 78.369 C 440.879 89.744 407.945 102.823 373.576 112.036 C 339.493 121.163 304.754 127.621 269.668 131.352 C 252.492 133.18 234.798 135.244 217.521 133.846 C 203.043 132.673 188.636 128.413 177.964 118.136 C 168.811 109.325 163.362 97.214 165.236 84.435 C 165.577 82.114 169.103 83.1 168.763 85.408 C 166.484 100.965 177.057 115.299 190.089 122.643 C 205.149 131.128 223.475 131.14 240.241 130.17 C 276.598 127.974 312.709 122.753 348.198 114.564 C 383.07 106.598 416.697 95.214 450.287 83.051 C 482.187 71.497 514.802 60.224 548.882 57.721 C 578.452 55.551 609.561 59.858 635.321 75.312 C 657.962 88.894 674.612 111.544 679.918 137.537 C 685.101 162.935 677.922 188.499 658.696 206.223 C 638.788 224.573 611.495 232.419 586.059 239.645 C 553.796 248.809 522.225 259.523 491.669 273.432 C 460.693 287.492 430.986 304.193 402.879 323.349 C 375.745 341.891 348.969 365.219 340.388 398.297 C 336.392 413.705 337.13 430.047 343.818 444.601 C 349.764 457.541 359.56 468.425 370.968 476.82 C 398.191 496.854 432.503 500.966 465.387 501.375 C 502.318 501.835 539.251 500.59 576.196 501.194 C 651.486 502.431 726.623 507.013 801.606 514.944 C 820.396 516.933 839.16 519.129 857.903 521.538 C 874.758 523.704 891.673 525.857 908.248 529.702 C 937.718 536.543 966.391 549.695 984.708 574.68 C 992.838 585.512 997.875 598.345 999.279 611.814 C 1000.561 625.869 997.12 639.949 990.765 652.454 C 976.701 680.126 950.354 697.729 922.377 709.293 C 907.392 715.488 891.845 720.18 876.333 724.84 C 874.073 725.518 873.108 721.987 875.363 721.311 L 875.362 721.311 Z" fill="#f2f2f2" style=""/>
  <circle cx="167.599" cy="84.764" r="29.271" fill="#f2f2f2" style=""/>
  <circle cx="370.669" cy="140.259" r="29.271" fill="#f2f2f2" style=""/>
  <circle cx="542.638" cy="29.271" r="29.271" fill="#f2f2f2" style=""/>
  <circle cx="649.963" cy="153.674" r="29.271" fill="#f2f2f2" style=""/>
  <circle cx="504.828" cy="297.59" r="29.271" fill="#f2f2f2" style=""/>
  <circle cx="320.663" cy="367.111" r="29.271" fill="#f2f2f2" style=""/>
  <circle cx="515.805" cy="475.657" r="29.271" fill="#f2f2f2" style=""/>
  <circle cx="725.582" cy="536.639" r="29.271" fill="#f2f2f2" style=""/>
  <circle cx="970.729" cy="523.223" r="29.271" fill="#f2f2f2" style=""/>
  <path d="M 534.188 82.939 C 446.507 83.558 374.714 154.812 373.467 242.488 C 373.455 243.296 373.45 248.987 373.451 256.433 C 373.452 279.162 391.875 297.588 414.607 297.59 C 437.362 297.586 455.802 279.125 455.784 256.368 C 455.778 251.306 455.775 247.801 455.775 247.587 C 455.764 187.498 520.803 149.929 572.848 179.962 C 623.522 209.204 625.201 281.741 575.935 313.299 L 575.948 313.315 C 575.948 313.315 517.372 351.028 499.513 402.759 L 499.528 402.762 C 496.389 413.359 494.798 424.357 494.804 435.41 C 494.804 439.953 495.071 479.708 495.588 511.975 C 495.963 535.14 514.851 553.719 538.019 553.714 C 561.56 553.713 580.599 534.553 580.456 511.013 C 580.276 481.463 580.179 447.054 580.179 444.557 C 580.179 412.792 610.823 381.143 635.993 360.503 C 664.98 336.735 685.837 304.348 694.216 267.811 C 696.069 260.289 697.091 252.586 697.264 244.843 C 697.264 154.966 624.061 82.29 534.188 82.939 Z" fill="#6c63ff" style=""/>
  <circle cx="780.534" cy="296.367" r="36.589" fill="#2f2e41" style=""/>
  <polygon points="712.921 709.986 697.97 709.986 690.855 652.311 712.925 652.311 712.921 709.986" fill="#a0616a" style=""/>
  <path d="M 687.288 705.711 L 716.124 705.711 C 716.124 705.711 716.124 705.711 716.124 705.711 L 716.124 723.867 C 716.124 723.867 716.124 723.867 716.124 723.867 L 669.132 723.867 C 669.132 723.867 669.132 723.867 669.132 723.867 C 669.132 713.841 677.261 705.711 687.288 705.711 Z" fill="#2f2e41" style=""/>
  <polygon points="828.786 709.986 813.835 709.986 806.72 652.311 828.789 652.311 828.786 709.986" fill="#a0616a" style=""/>
  <path d="M 803.155 705.711 L 831.99 705.711 C 831.99 705.711 831.99 705.711 831.99 705.711 L 831.99 723.867 C 831.99 723.867 831.99 723.867 831.99 723.867 L 784.997 723.867 C 784.997 723.867 784.997 723.867 784.997 723.867 C 784.997 713.841 793.127 705.711 803.155 705.711 Z" fill="#2f2e41" style=""/>
  <circle cx="774.973" cy="303.213" r="29.957" fill="#a0616a" style=""/>
  <path d="M 792.827 429.806 L 806.231 399.011 C 812.903 384.205 809.506 366.8 797.756 355.592 C 796.578 354.429 795.327 353.338 794.01 352.336 C 787.397 347.162 779.246 344.342 770.85 344.322 C 765.204 344.344 759.63 345.583 754.507 347.956 C 754.067 348.153 753.64 348.359 753.201 348.567 C 752.361 348.969 751.532 349.408 750.726 349.859 C 740.078 355.974 732.97 366.784 731.577 378.985 L 725.662 428.551 C 724.174 432.441 671.096 572.942 689.657 680.21 C 690.064 682.558 691.952 684.374 694.318 684.687 L 713.137 687.248 C 715.987 687.637 718.655 685.756 719.248 682.942 L 750.825 532.427 C 751.501 529.208 755.407 527.929 757.857 530.126 C 758.461 530.665 758.897 531.367 759.117 532.146 L 803.731 690.43 C 804.385 692.794 806.535 694.432 808.987 694.432 C 809.343 694.428 809.699 694.395 810.05 694.334 L 833.039 689.906 C 835.809 689.387 837.727 686.845 837.466 684.04 C 834.088 646.365 816.136 457.651 792.827 429.806 Z" style="" fill="#2f2e41"/>
  <path d="M 658.56 328.143 C 657.673 335.728 663.859 342.267 671.48 341.807 L 688.225 382.045 L 700.891 363.27 L 683.047 327.938 C 681.85 318.52 670.909 313.932 663.352 319.677 C 660.661 321.723 658.929 324.783 658.56 328.143 Z" fill="#a0616a" style=""/>
  <path d="M 773.313 470.324 C 780.894 469.416 785.813 461.878 783.589 454.575 L 818.819 428.913 L 797.608 420.972 L 767.407 446.555 C 758.528 449.914 756.616 461.626 763.964 467.634 C 766.58 469.774 769.961 470.745 773.313 470.324 Z" fill="#a0616a" style=""/>
  <path d="M 715.883 408.871 C 714.531 408.87 713.184 408.738 711.859 408.475 C 705.352 407.236 699.889 402.839 697.287 396.746 L 673.828 368.141 C 671.722 365.576 672.361 361.742 675.183 359.994 L 691.873 349.663 C 694.468 348.058 697.871 348.873 699.454 351.481 L 715.987 378.721 L 747.65 355.321 C 755.734 351.083 765.376 357.182 765.005 366.303 C 764.882 369.324 763.607 372.186 761.445 374.3 L 729.842 403.129 C 726.128 406.808 721.11 408.872 715.883 408.871 Z" style="" fill="#2f2e41"/>
  <path d="M 801.439 451.891 C 801.396 451.891 801.353 451.891 801.31 451.89 C 799.753 451.852 798.288 451.157 797.271 449.974 L 782.433 432.665 C 780.291 430.163 780.818 426.35 783.556 424.525 L 811.342 406.003 L 786.17 375.74 C 781.476 367.913 787.014 357.94 796.139 357.787 C 799.163 357.737 802.092 358.843 804.328 360.882 L 834.919 390.778 C 845.326 400.284 843.009 417.264 830.438 423.635 L 805.434 450.168 C 804.396 451.266 802.951 451.891 801.439 451.891 Z" style="" fill="#2f2e41"/>
  <path d="M 767.358 388.104 C 767.117 388.104 766.88 388.091 766.645 388.06 C 764.534 387.804 762.766 386.341 762.119 384.316 L 750.968 350.13 C 750.391 348.344 751.221 346.404 752.914 345.588 L 753.275 345.418 C 753.604 345.262 753.926 345.108 754.259 344.961 C 759.457 342.549 765.119 341.29 770.85 341.273 C 778.288 341.286 785.564 343.473 791.78 347.562 C 793.514 348.717 794.003 351.046 792.88 352.801 L 771.964 385.569 C 770.965 387.15 769.226 388.109 767.358 388.104 Z" fill="#e6e6e6" style=""/>
  <circle cx="809.38" cy="268.059" r="11.972" fill="#2f2e41" style=""/>
  <path d="M 768.338 254.899 C 750.825 254.899 736.627 269.096 736.627 286.61 L 736.627 300.026 L 753.127 300.026 L 761.021 286.61 L 763.387 300.026 L 813.464 300.026 L 800.048 286.61 C 800.048 269.096 785.851 254.899 768.338 254.899 Z" fill="#2f2e41" style=""/>
  <path d="M 815.535 259.858 C 818.267 251.312 826.744 245.965 835.634 247.177 C 843.265 248.454 849.298 254.588 852.892 261.438 C 856.486 268.289 858.147 275.955 860.563 283.303 C 862.979 290.653 866.406 298.04 872.507 302.797 C 878.607 307.555 887.967 308.846 893.959 303.951 C 891.448 322.671 869.612 331.653 854.654 320.116 C 852.045 318.103 849.867 315.584 848.25 312.713 C 845.09 307.087 844.274 300.495 843.336 294.111 C 842.399 287.724 841.18 281.122 837.407 275.888 C 833.631 270.655 826.566 267.236 820.572 269.62 L 815.535 259.858 Z" fill="#2f2e41" style=""/>
  <path d="M 426.228 278.123 C 403.497 278.12 385.072 259.695 385.071 236.965 C 385.071 229.521 385.075 223.829 385.088 223.02 C 385.435 197.522 391.855 172.474 403.818 149.952 C 384.163 176.862 373.354 209.213 372.892 242.535 C 372.879 243.345 372.874 249.036 372.874 256.48 C 372.875 279.209 391.301 297.635 414.031 297.637 C 432.46 297.629 448.643 285.381 453.653 267.647 C 446.118 274.403 436.35 278.136 426.228 278.123 Z" fill="#3f3d56" style=""/>
  <path d="M 536.978 169.663 C 591.517 172.268 626.6 228.626 604.861 278.714 C 643.814 232.963 618.638 162.204 559.541 151.344 C 523.829 144.78 488.307 163.711 473.84 197.015 C 489.501 178.593 512.828 168.489 536.978 169.663 Z" fill="#3f3d56" style=""/>
  <path d="M 549.638 534.246 C 526.471 534.253 507.584 515.672 507.207 492.508 C 506.692 460.241 506.423 420.484 506.423 415.942 C 506.417 404.889 508.009 393.892 511.148 383.295 L 511.135 383.291 C 512.989 377.972 515.229 372.797 517.833 367.8 C 509.831 378.466 503.463 390.262 498.938 402.805 L 498.952 402.807 C 495.811 413.406 494.221 424.402 494.229 435.456 C 494.229 440 494.495 479.754 495.013 512.022 C 495.389 535.186 514.275 553.765 537.443 553.761 C 556.3 553.757 572.895 541.313 578.18 523.212 C 570.379 530.324 560.196 534.262 549.638 534.246 Z" fill="#3f3d56" style=""/>
  <polygon points="168.39 710.541 183.342 710.54 190.455 652.865 168.386 652.866 168.39 710.541" fill="#ffb8b8" style=""/>
  <path d="M 156.653 706.994 L 200.321 706.994 C 200.321 706.994 200.321 706.994 200.321 706.994 L 200.321 723.864 C 200.321 723.864 200.321 723.864 200.321 723.864 L 173.525 723.864 C 164.204 723.864 156.653 716.313 156.653 706.994 C 156.653 706.994 156.653 706.994 156.653 706.994 Z" fill="#2f2e41" style="" transform="matrix(-1, 0.000046, -0.000046, -1, 357.006897, 1430.849854)"/>
  <polygon points="114.725 710.541 129.677 710.54 136.791 652.865 114.722 652.866 114.725 710.541" fill="#ffb8b8" style=""/>
  <path d="M 106.787 706.994 L 150.453 706.994 C 150.453 706.994 150.453 706.994 150.453 706.994 L 150.453 723.866 C 150.453 723.866 150.453 723.866 150.453 723.866 L 123.656 723.866 C 114.339 723.866 106.787 716.313 106.787 706.994 C 106.787 706.994 106.787 706.994 106.787 706.994 Z" fill="#2f2e41" style="" transform="matrix(-1, 0.000046, -0.000046, -1, 257.272919, 1430.854126)"/>
  <path d="M 127.791 692.803 L 113.186 692.033 C 110.016 691.868 107.594 689.145 107.798 685.977 L 125.254 492.705 L 205.641 514.398 L 213.385 512.287 L 189.166 683.381 C 188.74 686.032 186.53 688.033 183.85 688.193 L 168.106 688.925 C 164.777 689.11 162 686.41 162.092 683.077 L 164.944 580.387 C 164.985 578.925 163.428 577.968 162.141 578.664 C 161.649 578.929 161.298 579.399 161.184 579.949 L 133.674 688.268 C 133.139 690.918 130.804 692.821 128.101 692.811 C 128 692.811 127.894 692.809 127.791 692.803 Z" fill="#2f2e41" style=""/>
  <circle cx="171.074" cy="304.614" r="29.957" fill="#ffb8b8" style=""/>
  <path d="M 121.201 392.621 L 124.494 463.686 L 125.684 489.54 C 125.781 491.844 127.265 493.858 129.435 494.634 L 206.681 522.616 C 207.304 522.847 207.965 522.964 208.632 522.96 C 211.839 522.973 214.42 520.325 214.32 517.12 L 211.153 389.34 C 210.724 367.716 194.981 349.449 173.656 345.827 C 172.91 345.714 172.149 345.6 171.388 345.498 C 158.413 343.888 145.39 348.102 135.818 357.013 C 125.907 366.128 120.552 379.173 121.201 392.621 Z" style="fill: rgb(247, 88, 66);"/>
  <path d="M 243.582 508.437 C 235.732 505.999 232.448 496.686 237.033 489.866 L 210.836 455.033 L 233.443 453.633 L 254.853 486.925 C 262.362 492.732 260.772 504.491 251.988 508.092 C 249.312 509.188 246.336 509.308 243.582 508.437 Z" fill="#ffb8b8" style=""/>
  <path d="M 225.163 483.562 C 223.762 482.993 222.647 481.886 222.064 480.489 L 182.599 386.462 C 178.063 375.676 186.903 364.025 198.513 365.489 C 203.908 366.168 208.53 369.681 210.631 374.696 L 250.097 468.725 C 251.311 471.627 249.946 474.967 247.047 476.188 L 229.526 483.542 C 228.133 484.131 226.563 484.138 225.163 483.562 Z" style="fill: rgb(247, 88, 66);"/>
  <path d="M 161.443 480.245 L 199.348 407.666 C 200.87 404.762 204.457 403.634 207.367 405.149 L 262.387 433.884 C 265.291 435.407 266.418 438.994 264.903 441.902 L 226.998 514.481 C 225.475 517.389 221.888 518.515 218.978 516.998 L 163.959 488.263 C 161.053 486.741 159.928 483.155 161.443 480.245 Z" fill="#3f3d56" style=""/>
  <path d="M 186.863 447.085 C 183.967 439.393 174.478 436.665 167.938 441.645 L 131.619 417.552 L 131.557 440.202 L 166.055 459.61 C 172.296 466.762 183.941 464.478 187.017 455.498 C 187.953 452.762 187.898 449.786 186.863 447.085 Z" fill="#ffb8b8" style=""/>
  <path d="M 140.945 452.178 L 111.263 428.668 C 97.384 424.007 92.453 406.906 101.721 395.572 L 128.671 360.252 C 134.674 352.917 146.369 354.83 149.718 363.696 C 150.829 366.639 150.774 369.893 149.563 372.797 L 128.24 407.676 L 159.576 422.541 C 162.667 424.006 163.778 427.844 161.951 430.736 L 149.302 450.755 C 148.438 452.12 147.035 453.057 145.442 453.33 C 145.409 453.336 145.378 453.34 145.346 453.345 C 143.78 453.582 142.187 453.159 140.945 452.178 Z" style="fill: rgb(247, 88, 66);"/>
  <path d="M 148.439 324.673 C 147.887 323.061 149.006 321.365 150.702 321.234 C 152.342 321.324 153.875 322.079 154.942 323.327 C 156.025 324.576 157.288 325.661 158.688 326.543 C 160.137 327.274 162.101 327.169 162.928 325.776 C 163.703 324.47 163.173 322.718 162.705 321.199 C 161.508 317.334 160.839 313.326 160.715 309.282 C 160.581 304.769 161.216 300.059 163.714 296.54 C 166.94 291.997 172.706 290.272 178.162 290.398 C 183.619 290.521 188.987 292.207 194.391 293.273 C 196.258 293.639 198.452 293.827 199.7 292.382 C 201.026 290.845 200.54 288.354 199.974 286.278 C 198.509 280.89 196.956 275.32 193.553 270.969 C 189.873 266.448 184.617 263.49 178.842 262.687 C 173.3 261.999 167.672 262.64 162.424 264.551 C 153.874 267.247 146.348 272.488 140.858 279.575 C 135.196 287.113 132.75 296.584 134.054 305.921 C 135.327 314.052 139.637 321.398 146.112 326.476 L 148.439 324.673 Z" fill="#2f2e41" style=""/>
  <path d="M 527.835 710.78 C 493.621 695.876 483.225 652.34 507.017 623.589 C 472.139 649.054 477.907 702.727 517.399 720.201 C 540.379 730.366 567.316 724.013 583.329 704.651 C 567.235 716.412 546.107 718.746 527.835 710.78 Z" fill="#3f3d56" style=""/>
</svg>